<svg xmlns="http://www.w3.org/2000/svg" width="23.103" height="40.026" viewBox="0 0 23.103 40.026">
  <path id="arrow_forward_ios_FILL1_wght700_GRAD0_opsz48" d="M13.2,43.05a2.921,2.921,0,0,1-.825-2,2.65,2.65,0,0,1,.825-2L28.35,23.9,13.2,8.75a2.866,2.866,0,0,1-.85-1.975,2.6,2.6,0,0,1,.8-2.025,2.715,2.715,0,0,1,2-.875,2.554,2.554,0,0,1,2,.825l17.6,17.55a2.366,2.366,0,0,1,.525.775,2.275,2.275,0,0,1,0,1.75,2.366,2.366,0,0,1-.525.775L17.2,43.1a2.683,2.683,0,0,1-1.975.8,2.765,2.765,0,0,1-2.025-.85Z" transform="translate(-12.347 -3.874)" fill="#707070"/>
</svg>
