<svg id="Layer_1" data-name="Layer 1" xmlns="http://www.w3.org/2000/svg" xmlns:xlink="http://www.w3.org/1999/xlink" viewBox="0 0 328.79 142.17"><defs><style>.cls-1{fill:none;}.cls-2{clip-path:url(#clip-path);}.cls-3{fill:#00abff;}.cls-4{clip-path:url(#clip-path-2);}.cls-5{fill:#ffd93d;}.cls-6{clip-path:url(#clip-path-3);}.cls-7{fill:#36ae7c;}.cls-8{clip-path:url(#clip-path-4);}.cls-9{fill:#ff005c;}.cls-10{clip-path:url(#clip-path-5);}.cls-11{fill:#db4242;}</style><clipPath id="clip-path"><rect class="cls-1" x="109.77" width="108.77" height="108.77"/></clipPath><clipPath id="clip-path-2"><rect class="cls-1" x="54.97" y="56.13" width="108.65" height="86.04"/></clipPath><clipPath id="clip-path-3"><rect class="cls-1" x="164.9" y="56.13" width="108.77" height="86.04"/></clipPath><clipPath id="clip-path-4"><rect class="cls-1" x="220.02" width="108.77" height="108.77"/></clipPath><clipPath id="clip-path-5"><rect class="cls-1" width="108.77" height="108.77"/></clipPath></defs><g id="Coinbank_Wallet" data-name="Coinbank Wallet"><g class="cls-2"><g id="Group_11" data-name="Group 11"><path id="Path_3" data-name="Path 3" class="cls-3" d="M164.17,0l54.38,54.38-54.38,54.39L109.79,54.36Z"/></g></g><g class="cls-4"><g id="Group_12" data-name="Group 12"><path id="Path_5" data-name="Path 5" class="cls-5" d="M109.24,56.11l54,53.43-18.15,17.94a45.87,45.87,0,0,1-3.68,3.3c-1.29,1.05-2.62,2-4,2.94s-2.81,1.75-4.28,2.53-3,1.47-4.5,2.1-3.09,1.19-4.68,1.67-3.2.87-4.83,1.2-3.27.56-4.92.72-3.32.24-5,.24a48.7,48.7,0,0,1-5-.25c-1.65-.16-3.3-.4-4.92-.72s-3.24-.72-4.83-1.2a49.28,49.28,0,0,1-4.69-1.66q-2.3-.94-4.5-2.11a46.81,46.81,0,0,1-4.26-2.53,48.27,48.27,0,0,1-4-2.93,46.33,46.33,0,0,1-3.69-3.31l-18.15-18,54-53.43Z"/></g></g><g class="cls-6"><g id="Group_13" data-name="Group 13"><path id="Path_7" data-name="Path 7" class="cls-7" d="M219.29,56.11l54,53.43-18.15,17.94a46,46,0,0,1-3.69,3.3,47.78,47.78,0,0,1-4,2.94,49.4,49.4,0,0,1-4.27,2.53c-1.47.77-3,1.48-4.5,2.1s-3.1,1.18-4.69,1.66-3.2.88-4.83,1.2a48.2,48.2,0,0,1-4.92.72c-1.65.16-3.31.25-5,.25s-3.32-.09-5-.25-3.3-.4-4.93-.72-3.24-.72-4.83-1.2-3.15-1-4.68-1.66-3-1.33-4.5-2.11-2.89-1.62-4.27-2.53-2.72-1.89-4-2.93-2.52-2.15-3.69-3.31l-18.15-18,54-53.43Z"/></g></g><g class="cls-8"><g id="Group_14" data-name="Group 14"><path id="Path_9" data-name="Path 9" class="cls-9" d="M274.42,0,328.8,54.36l-54.38,54.39L220,54.36Z"/></g></g><g class="cls-10"><g id="Group_15" data-name="Group 15"><path id="Path_11" data-name="Path 11" class="cls-11" d="M54.39,0l54.39,54.38L54.39,108.75,0,54.36Z"/></g></g></g></svg>