<svg xmlns="http://www.w3.org/2000/svg" width="61.864" height="61.864" viewBox="0 0 61.864 61.864">
  <path id="info_FILL1_wght700_GRAD0_opsz48" d="M33.864,49.007a2.936,2.936,0,0,0,2.108-.836,2.84,2.84,0,0,0,.872-2.145V33.668a2.79,2.79,0,0,0-.872-2.035,2.872,2.872,0,0,0-2.108-.872,2.936,2.936,0,0,0-2.108.836,2.84,2.84,0,0,0-.872,2.145V46.1a2.754,2.754,0,0,0,.872,2.072,2.936,2.936,0,0,0,2.108.836Zm-.218-22.536a3.4,3.4,0,0,0,2.508-.981,3.307,3.307,0,0,0,.981-2.435,3.492,3.492,0,1,0-6.979-.073,3.333,3.333,0,0,0,1.018,2.508,3.429,3.429,0,0,0,2.472.981Zm.073,38.093A31.622,31.622,0,0,1,21.433,62.2a29.639,29.639,0,0,1-16.32-16.32A31.622,31.622,0,0,1,2.75,33.6a30.978,30.978,0,0,1,2.363-12.1,30.584,30.584,0,0,1,6.506-9.814A30.25,30.25,0,0,1,21.433,5.1,31.2,31.2,0,0,1,33.718,2.7a30.691,30.691,0,0,1,30.9,30.968,31.018,31.018,0,0,1-2.4,12.213A30.251,30.251,0,0,1,55.636,55.7,30.584,30.584,0,0,1,45.822,62.2,30.978,30.978,0,0,1,33.718,64.564Z" transform="translate(-2.75 -2.7)" fill="#707070"/>
</svg>
