<svg xmlns="http://www.w3.org/2000/svg" width="48.414" height="61.866" viewBox="0 0 48.414 61.866">
  <path id="lock_FILL1_wght700_GRAD0_opsz48" d="M13.336,62.866a6.347,6.347,0,0,1-4.659-1.927A6.347,6.347,0,0,1,6.75,56.28V27.134a6.464,6.464,0,0,1,1.927-4.694,6.291,6.291,0,0,1,4.659-1.962h3.5V15.293a13.9,13.9,0,0,1,4.1-10.124A13.472,13.472,0,0,1,30.922,1a13.472,13.472,0,0,1,9.984,4.169A13.9,13.9,0,0,1,45,15.293v5.185h3.5a6.7,6.7,0,0,1,6.656,6.656V56.28A6.291,6.291,0,0,1,53.2,60.939a6.464,6.464,0,0,1-4.694,1.927ZM30.922,47.1A5.261,5.261,0,0,0,34.74,45.56a5.006,5.006,0,0,0,1.576-3.713,5.515,5.515,0,0,0-1.576-3.818,5.105,5.105,0,0,0-7.637,0,5.515,5.515,0,0,0-1.576,3.818A5.006,5.006,0,0,0,27.1,45.56,5.261,5.261,0,0,0,30.922,47.1Zm-7.5-26.624H38.419V15.293a7.474,7.474,0,0,0-2.137-5.465,7.209,7.209,0,0,0-5.36-2.172A7.24,7.24,0,0,0,25.6,9.828a7.41,7.41,0,0,0-2.172,5.465Z" transform="translate(-6.75 -1)" fill="#707070"/>
</svg>
