<svg xmlns="http://www.w3.org/2000/svg" width="52.666" height="61.866" viewBox="0 0 52.666 61.866">
  <path id="notifications_FILL1_wght700_GRAD0_opsz48" d="M9.327,55.505A3.348,3.348,0,0,1,5.85,52.028,3.3,3.3,0,0,1,6.828,49.6a3.385,3.385,0,0,1,2.5-.978h3.26V28.484A20.511,20.511,0,0,1,16.463,16.35a16.8,16.8,0,0,1,10.4-6.918V7.693A4.824,4.824,0,0,1,28.416,4a5.574,5.574,0,0,1,7.5,0,4.88,4.88,0,0,1,1.521,3.695V9.432a16.974,16.974,0,0,1,10.5,6.918,20.382,20.382,0,0,1,3.912,12.134V48.623h3.187A3.417,3.417,0,0,1,57.5,49.6a3.235,3.235,0,0,1,1.014,2.427,3.321,3.321,0,0,1-1.014,2.5,3.417,3.417,0,0,1-2.463.978Zm22.892,8.91a6.314,6.314,0,0,1-4.528-1.847,6.04,6.04,0,0,1-1.92-4.528H38.594a6.1,6.1,0,0,1-1.883,4.528A6.192,6.192,0,0,1,32.219,64.416Z" transform="translate(-5.85 -2.55)" fill="#707070"/>
</svg>
