<svg xmlns="http://www.w3.org/2000/svg" xmlns:xlink="http://www.w3.org/1999/xlink" width="273" height="273" viewBox="0 0 273 273">
  <defs>
    <clipPath id="clip-path">
      <path id="Path_39" data-name="Path 39" d="M278.35,284.3c0,69.607-56.652,126.056-126.543,126.068-69.913,0-126.574-56.439-126.586-126.068,0-69.65,56.652-126.1,126.543-126.11C221.685,158.166,278.373,214.642,278.35,284.3Z" transform="translate(-25.22 -158.19)" fill="#f7daa2"/>
    </clipPath>
  </defs>
  <g id="Group_65" data-name="Group 65" transform="translate(-381 -353)">
    <circle id="Ellipse_7" data-name="Ellipse 7" cx="136.5" cy="136.5" r="136.5" transform="translate(381 353)" fill="#fff"/>
    <g id="Artboard_82" data-name="Artboard 82" transform="translate(391 363.427)">
      <path id="Path_30" data-name="Path 30" d="M278.35,284.3c0,69.607-56.652,126.056-126.543,126.068-69.913,0-126.574-56.439-126.586-126.068,0-69.65,56.652-126.1,126.543-126.11C221.685,158.166,278.373,214.642,278.35,284.3Z" transform="translate(-25.22 -158.19)" fill="#f7daa2"/>
      <g id="Group_64" data-name="Group 64" transform="translate(0)" clip-path="url(#clip-path)">
        <path id="Path_31" data-name="Path 31" d="M199.348,268.215c-7.964-9.886-70.924-31.565-70.924-31.565s-61.647,23.974-70.9,31.565S44.78,323.69,44.78,323.69h165.5S207.291,278.143,199.348,268.215Z" transform="translate(-2.678 -68.403)" fill="#293033"/>
        <path id="Path_32" data-name="Path 32" d="M113.754,257.855s-2.411,11.622-19.5,11.622-19.48-11.622-19.48-11.622a25.9,25.9,0,0,0,0-20.479c-4.757-11.043,44.793-13.274,38.981,0S113.754,257.855,113.754,257.855Z" transform="translate(31.516 -78.028)" fill="#dda778"/>
        <path id="Path_33" data-name="Path 33" d="M153.7,285.669c1.248-16.6,11.817-40.486,11.817-40.486,15.067-33.452-.581-83.888-29.682-68.384C99.8,144.011,42.72,189.815,62.093,244.732c0,0,9.148,22.216,10.031,38.6s30.457,49.17,39.95,49.707S152.5,302.223,153.7,285.669Z" transform="translate(12.77 -149.48)" fill="#442928"/>
        <path id="Path_34" data-name="Path 34" d="M118.928,213.75c0,8.77-6.242,20.8-10.439,20.8s-7.62-7.1-7.62-15.868a18.759,18.759,0,0,1,7.62-15.868C112.556,199.64,118.928,202.814,118.928,213.75Z" transform="translate(61.944 -108.462)" fill="#f9bb8d"/>
        <path id="Path_35" data-name="Path 35" d="M58.63,213.75c0,8.77,6.242,20.8,10.439,20.8s7.6-7.1,7.6-15.868a18.759,18.759,0,0,0-7.6-15.868C65,199.64,58.63,202.814,58.63,213.75Z" transform="translate(13.284 -108.462)" fill="#f9bb8d"/>
        <path id="Path_36" data-name="Path 36" d="M106.819,174.88c-29.553,0-42.619,20.65-42.619,51.465v38.6c0,26.8,31.082,49.728,40.9,49.728s44.341-26.8,44.341-52.194V226.3C149.481,195.53,136.415,174.88,106.819,174.88Z" transform="translate(19.703 -139.09)" fill="#f9bb8d"/>
        <path id="Path_37" data-name="Path 37" d="M151.025,249.691l2.669-22.452c0-30.772-15.734-53.609-45.2-53.609S62.86,199.877,62.86,230.649l3.013,24.081a16.362,16.362,0,0,0,6.673-13.4c-.71-19.75,9.686-22.666,25.83-25.732,25.485-4.846,32.653-20.071,32.653-20.071s8.352,2.809,13.69,15.225c3.465,8.02-1.055,16.748-1.313,21.787S151.025,249.691,151.025,249.691Z" transform="translate(18.159 -140.521)" fill="#442928"/>
        <path id="Path_38" data-name="Path 38" d="M90.116,232.53a34.676,34.676,0,0,1-8.976,0c4.778,7.312,0,17.67,0,17.67h8.976A23.8,23.8,0,0,1,90.116,232.53Z" transform="translate(39.226 -73.118)" fill="#442928"/>
      </g>
    </g>
  </g>
</svg>
