<svg xmlns="http://www.w3.org/2000/svg" width="38.369" height="38.27" viewBox="0 0 38.369 38.27">
  <path id="logout_FILL1_wght700_GRAD0_opsz48" d="M31.451,32.646a2.278,2.278,0,0,1,0-3.276l3.177-3.177h-14.3a2.333,2.333,0,1,1,0-4.666h14.2l-3.276-3.276a1.925,1.925,0,0,1-.62-1.539,2.333,2.333,0,0,1,.72-1.638,2.214,2.214,0,0,1,1.688-.67,2.387,2.387,0,0,1,1.688.72l7.148,7.148a2.349,2.349,0,0,1,.521.769,2.259,2.259,0,0,1,0,1.737,2.349,2.349,0,0,1-.521.769L34.727,32.7a2.159,2.159,0,0,1-1.588.645,2.408,2.408,0,0,1-1.688-.695ZM8.916,42.97A4.579,4.579,0,0,1,5.59,41.605,4.457,4.457,0,0,1,4.2,38.3V9.416A4.538,4.538,0,0,1,5.59,6.09,4.538,4.538,0,0,1,8.916,4.7H21.374a2.18,2.18,0,0,1,1.663.72,2.367,2.367,0,0,1,.67,1.663,2.289,2.289,0,0,1-2.333,2.333H8.916V38.3H21.374a2.333,2.333,0,1,1,0,4.666Z" transform="translate(-4.2 -4.7)" fill="#fff"/>
</svg>
