<svg xmlns="http://www.w3.org/2000/svg" width="79.691" height="74.689" viewBox="0 0 79.691 74.689">
  <path id="path2990" d="M353.441,342.638a7.326,7.326,0,0,1,7.222,0,16.067,16.067,0,0,1,6.646,6.62l6.724,12.559,3.349-1.805,8.687,2.617-8.949,4.814,8.713,16.275a5.626,5.626,0,0,0,3.3,2.617,6.908,6.908,0,0,0,5.495-.942,14.81,14.81,0,0,0,6.358-9.42,17.216,17.216,0,0,0-.235-12.507l-1.387.89q-7.666,4.108-12.01-4.029a8.556,8.556,0,0,1-.837-5.861,8.373,8.373,0,0,1,4.841-5.364,10.309,10.309,0,0,1,9.472-.131,16.354,16.354,0,0,1,8.111,7.64,25.643,25.643,0,0,1,1.387,19.284,24.2,24.2,0,0,1-12.3,16.144,14.284,14.284,0,0,1-9,.994,14,14,0,0,1-7.85-3.558L371.05,370.583l-5.652,3.323-8.582-2.774,11.225-6.044-6.1-11.356c-1.23-2.3-3.349-2.93-6.358-1.832q-1.936,1.02-2.2,1.962a31.22,31.22,0,0,1-4.343-3.218l-.314-.6c-.549-1.047-.235-2.355.994-3.925a11.879,11.879,0,0,1,3.715-3.375" transform="matrix(0.891, 0.454, -0.454, 0.891, -131.911, -462.647)" fill="#eef2f5"/>
</svg>
